<svg width="120" height="56" viewBox="0 0 120 56" fill="none" xmlns="http://www.w3.org/2000/svg">
<path d="M8.12 28.12C8.24 16.96 12.4 13.88 20.96 13.84C29.52 13.84 33.8 17 33.8 28.12C33.68 39.36 29.6 42.32 20.96 42.4C12.4 42.32 8.24 39.36 8.12 28.12ZM20.96 36.52C25.48 36.36 26.32 34.72 26.4 28.12C26.4 21.6 25.4 19.6 20.96 19.6C16.56 19.6 15.56 21.6 15.56 28.12C15.6 34.72 16.52 36.36 20.96 36.52ZM56.7609 35.88V42H38.8009V14.24H56.4009V20.36H45.8809V24.92H55.5609V30.8H45.8809V35.88H56.7609ZM76.8181 42L70.7381 32.32H68.4981V42H61.4181V14.24H71.8581C79.2181 14.24 82.5781 16.88 82.5781 23.28C82.5781 27.8 80.9781 30.4 77.5781 31.56L85.1781 42H76.8181ZM68.4981 27.16H70.6581C74.3381 27.16 75.5781 26.28 75.5781 23.28C75.5781 20.44 74.3781 19.72 70.6581 19.72H68.4981V27.16ZM84.3316 14.24H92.2116L98.4116 34.44H98.6516L105.172 14.24H112.612L102.732 42H93.9716L84.3316 14.24Z" fill="#012FA6"/>
</svg>
