<?xml version="1.0" encoding="UTF-8" standalone="no"?>
<svg
   inkscape:version="1.4 (e7c3feb100, 2024-10-09)"
   sodipodi:docname="Qemu_logo.svg"
   version="1.1"
   viewBox="0 0 128 128"
   id="svg5"
   width="128"
   height="128"
   xmlns:inkscape="http://www.inkscape.org/namespaces/inkscape"
   xmlns:sodipodi="http://sodipodi.sourceforge.net/DTD/sodipodi-0.dtd"
   xmlns="http://www.w3.org/2000/svg"
   xmlns:svg="http://www.w3.org/2000/svg"
   xmlns:rdf="http://www.w3.org/1999/02/22-rdf-syntax-ns#"
   xmlns:cc="http://creativecommons.org/ns#"
   xmlns:dc="http://purl.org/dc/elements/1.1/">
  <sodipodi:namedview
     id="namedview5"
     pagecolor="#ffffff"
     bordercolor="#000000"
     borderopacity="0.25"
     inkscape:showpageshadow="2"
     inkscape:pageopacity="0.0"
     inkscape:pagecheckerboard="0"
     inkscape:deskcolor="#d1d1d1"
     inkscape:zoom="3.421875"
     inkscape:cx="105.64384"
     inkscape:cy="78.319635"
     inkscape:window-width="2560"
     inkscape:window-height="1371"
     inkscape:window-x="0"
     inkscape:window-y="33"
     inkscape:window-maximized="1"
     inkscape:current-layer="g5" />
  <title
     id="title1">Kew the Angry Emu</title>
  <defs
     id="defs4">
    <linearGradient
       id="cvfb"
       x1="143"
       x2="143"
       y1="832"
       y2="879"
       gradientUnits="userSpaceOnUse"
       inkscape:collect="always"
       gradientTransform="matrix(1.05,0,0,1.29,-23.125114,-1008.5251)">
      <stop
         style="stop-color:#fff"
         offset="0"
         id="stop1" />
      <stop
         style="stop-color:#fff;stop-opacity:0"
         offset="1"
         id="stop2" />
    </linearGradient>
    <radialGradient
       id="cvfa"
       cx="117"
       cy="98.300003"
       r="55.900002"
       gradientTransform="matrix(0.974,1.51,-0.836,0.54,88.074886,-121.52511)"
       gradientUnits="userSpaceOnUse"
       inkscape:collect="always">
      <stop
         offset="0"
         id="stop3" />
      <stop
         style="stop-opacity:.897"
         offset="1"
         id="stop4" />
    </radialGradient>
  </defs>
  <metadata
     id="metadata4">
    <rdf:RDF>
      <cc:Work
         rdf:about="">
        <dc:format>image/svg+xml</dc:format>
        <dc:type
           rdf:resource="http://purl.org/dc/dcmitype/StillImage" />
        <dc:title>Kew the Angry Emu</dc:title>
        <dc:creator>
          <cc:Agent>
            <dc:title>Benoît Canet</dc:title>
          </cc:Agent>
        </dc:creator>
        <dc:rights>
          <cc:Agent>
            <dc:title>CC BY 3.0</dc:title>
          </cc:Agent>
        </dc:rights>
        <dc:publisher>
          <cc:Agent>
            <dc:title>QEMU Community</dc:title>
          </cc:Agent>
        </dc:publisher>
        <dc:date>2012-02-15</dc:date>
        <cc:license
           rdf:resource="http://creativecommons.org/licenses/by/4.0/" />
        <dc:subject>
          <rdf:Bag>
            <rdf:li>QEMU logo</rdf:li>
            <rdf:li>QEMU mascot</rdf:li>
          </rdf:Bag>
        </dc:subject>
        <dc:source>http://lists.gnu.org/archive/html/qemu-devel/2012-02/msg01961.html</dc:source>
      </cc:Work>
      <cc:License
         rdf:about="http://creativecommons.org/licenses/by/4.0/">
        <cc:permits
           rdf:resource="http://creativecommons.org/ns#Reproduction" />
        <cc:permits
           rdf:resource="http://creativecommons.org/ns#Distribution" />
        <cc:requires
           rdf:resource="http://creativecommons.org/ns#Notice" />
        <cc:requires
           rdf:resource="http://creativecommons.org/ns#Attribution" />
        <cc:permits
           rdf:resource="http://creativecommons.org/ns#DerivativeWorks" />
      </cc:License>
    </rdf:RDF>
  </metadata>
  <g
     transform="translate(-62.3,-55.9)"
     inkscape:groupmode="layer"
     inkscape:label="Layer 1"
     id="g5">
    <path
       d="m 126.47489,64.374886 c -30.900004,0 -55.900004,24.9 -55.900004,55.600004 0,30.7 25,55.6 55.900004,55.6 10.1,0 19.5,-2.65 27.7,-7.31 l 2.91,7.31 h 22.5 l -8.81,-21.8 c 7.22,-9.36 11.5,-21.1 11.5,-33.8 0,-30.700004 -25,-55.600004 -55.8,-55.600004 z"
       style="fill:url(#cvfa)"
       inkscape:connector-curvature="0"
       id="path4" />
    <ellipse
       cx="125.97488"
       cy="95.71489"
       rx="37.170002"
       ry="31.734001"
       style="fill:url(#cvfb);stroke-width:1.16383"
       id="ellipse4" />
    <circle
       cx="132.14488"
       cy="86.474884"
       r="6.5700002"
       id="circle4" />
    <rect
       transform="matrix(0.98972836,0.14296076,-0.18995973,0.98179188,0,0)"
       x="134.97606"
       y="72.498268"
       width="37.610317"
       height="5.5011659"
       id="rect4"
       style="stroke-width:1.00024" />
    <rect
       x="153.47488"
       y="97.474884"
       width="6.5700002"
       height="2.9000001"
       id="rect5" />
    <path
       d="m 111.47489,73.474886 c -0.057,2.19 -3.87,0.283 -4.03,2.78 -4.22,-1.88 0.329,2.87 -0.0937,3.31 h -0.0312 l -0.312,-0.0312 c -0.204,-0.0728 -0.5,-0.199 -0.938,-0.469 -2.95,2.35 -3.02,7.23 -6.06,9.94 -1.990004,4.31 -2.480004,8.98 -3.940004,13.500004 -0.718,4.3 -1.35,8.6 -0.281,12.9 0.321,3.5 -0.689,8.26 2.5,10.7 4.730004,3.88 8.660004,8.8 12.600004,13.5 6.22,7.65 11.7,15.9 16.6,24.4 0.324,-2.12 1.11,4.26 2.53,4.69 -0.492,-3.19 -1.13,-8.26 -1.44,-12.2 -1.58,-10.3 -6.65,-19.6 -8.56,-29.8 -0.0587,-0.43 -0.128,-0.872 -0.188,-1.31 v -1.28 h -0.156 c -0.626,-5.04 -0.85,-10.5 2.81,-14.4 3.74,-3.77 9.31,-4.72 13.8,-7.34 1,-0.591 2.05,-1.07 3.12,-1.41 0.009,-0.003 0.0228,0.003 0.0312,0 3.12,-0.963004 6.45,-0.933 9.69,-0.406 0.0479,0.008 0.108,0.0233 0.156,0.0312 0.295,0.0493 0.614,0.099 0.906,0.156 2.37,0.211 7.14,1.14 8,-0.5 -3.27,-2.790004 -7.99,-2.590004 -12,-3.690004 -0.631,-0.115 -1.41,-0.24 -2.19,-0.312 l -3.91,-0.875 -0.969,-0.25 v 0.0312 l -14,-2.72 c -0.222,-0.202 -0.464,-0.409 -0.688,-0.562 l 13.6,1.69 v -0.0625 c 0.48,0.107 0.956,0.194 1.44,0.25 v 0.0312 l 9.62,1.78 c 1.66,0.62 3.43,1.08 5.09,1.19 2.74,0.399 6.23,4.490004 7.12,4.690004 -0.441,-4.310004 -4.74,-6.240004 -8.31,-7.500004 -4.17,-2.03 -10.4,-1.95 -11.1,-7.56 -0.176,-0.391 -0.349,-0.781 -0.562,-1.16 l -1.62,-2.16 0.0625,-0.0312 c -2.22,-2.62 -5.34,-4.52 -8.66,-5.25 -3.29,-1.14 -6.99,-2.27 -10.5,-2.72 -1.18,3.48 -2.5,-2.76 -5.34,-0.906 -2.49,0.295 -2.15,0.953 -4,-0.625 z m 17.9,10.2 c 0.902,-0.0238 1.93,0.142 2.97,0.5 2.76,0.954 4.56,2.97 4.03,4.5 -0.53,1.53 -3.21,1.99 -5.97,1.03 -2.76,-0.96 -4.56,-2.93 -4.03,-4.47 0.331,-0.959 1.5,-1.52 3,-1.56 z"
       style="fill:#ff6600"
       inkscape:connector-curvature="0"
       id="path5" />
  </g>
</svg>
